<?xml version="1.0" standalone="no"?>
<!DOCTYPE svg PUBLIC "-//W3C//DTD SVG 1.0//EN" "http://www.w3.org/TR/2001/REC-SVG-20010904/DTD/svg10.dtd">
<svg xmlns="http://www.w3.org/2000/svg" xmlns:xlink="http://www.w3.org/1999/xlink" id="body_1" width="56" height="42">

<g transform="matrix(0.42105263 0 0 0.42000002 0 0)">
	<g transform="matrix(1 0 0 1 0 0)">
		<g transform="matrix(0.3340683 0 0 0.3340683 16.5 -0)">
			<g>
				<g>
                    <path d="M282.868 56.803L204.27 56.803L211.147 50.645C 211.65201 50.193 212.104 49.687 212.49701 49.136C 222.54701 35.045002 219.259 15.405003 205.16602 5.3550034C 198.44601 0.56300354 189.98102 -1.1199965 181.94101 0.74300337C 173.90001 2.6040034 167.035 7.8330035 163.104 15.088003L163.104 15.088003L149.67 39.887L136.236 15.088001C 132.305 7.832001 125.438995 2.6020012 117.398994 0.74200153C 109.356995 -1.1199985 100.892 0.5620015 94.173996 5.3540015C 80.08299 15.404001 76.794 35.044003 86.842995 49.135C 87.23699 49.686996 87.689995 50.192997 88.19299 50.643997L88.19299 50.643997L95.06999 56.802L16.474 56.802C 11.404001 56.802 7.2940006 60.912 7.2940006 65.981995L7.2940006 65.981995L7.2940006 124.18599C 7.2940006 129.256 11.404001 133.366 16.474 133.366L16.474 133.366L18.906 133.366L18.906 290.16C 18.906 295.23 23.016 299.34 28.086 299.34L28.086 299.34L271.256 299.34C 276.32602 299.34 280.436 295.23 280.436 290.16L280.436 290.16L280.436 133.366L282.868 133.366C 287.93802 133.366 292.048 129.256 292.048 124.186L292.048 124.186L292.048 65.983C 292.048 60.913 287.937 56.803 282.868 56.803zM179.248 23.833C 180.694 21.162 183.121 19.314 186.081 18.629C 186.883 18.442999 187.68599 18.352 188.482 18.352C 190.624 18.352 192.70299 19.015999 194.506 20.302C 197.34 22.323 199.216 25.325 199.791 28.758999C 200.316 31.898998 199.695 35.052 198.04 37.736L198.04 37.736L176.745 56.803L161.388 56.803L179.248 23.833zM99.549 28.76C 100.123 25.328001 102 22.324001 104.83501 20.303001C 107.30801 18.539001 110.298004 17.944002 113.26001 18.630001C 116.21901 19.314001 118.64601 21.163002 120.09301 23.834002L120.09301 23.834002L137.953 56.803L122.596 56.803L101.3 37.736C 99.645 35.053 99.024 31.898 99.549 28.76zM115.508 280.981L37.265 280.981L37.265 133.367L115.507996 133.367L115.507996 280.981zM165.472 280.981L133.868 280.981L133.868 133.367L165.472 133.367L165.472 280.981zM262.076 280.981L183.833 280.981L183.833 133.367L262.076 133.367L262.076 280.981zM273.688 115.007L25.653 115.007L25.653 75.163L273.687 75.163L273.687 115.007z" stroke="none" fill="#000000" fill-rule="nonzero" />
				</g>
			</g>
			<g>
			</g>
			<g>
			</g>
			<g>
			</g>
			<g>
			</g>
			<g>
			</g>
			<g>
			</g>
			<g>
			</g>
			<g>
			</g>
			<g>
			</g>
			<g>
			</g>
			<g>
			</g>
			<g>
			</g>
			<g>
			</g>
			<g>
			</g>
			<g>
			</g>
		</g>
	</g>
</g>
</svg>