<svg version="1.1" id="designs" xmlns="http://www.w3.org/2000/svg" xmlns:xlink="http://www.w3.org/1999/xlink" x="0px" y="0px"
	 width="32px" height="32px" viewBox="0 0 32 32" style="enable-background:new 0 0 32 32;" xml:space="preserve">
<style type="text/css">
	.sketchy_een{fill:#111918;}
</style>
<path class="sketchy_een" d="M30.789,10.211c-0.018-0.056-0.015-0.116-0.046-0.169c-0.068-0.119-0.163-0.213-0.281-0.283
	c-0.009-0.007-0.018-0.013-0.027-0.02c-0.304-0.247-0.566-0.541-0.855-0.808c-0.321-0.297-0.661-0.569-1.005-0.842
	c-0.372-0.295-0.721-0.623-1.073-0.94c-0.428-0.388-0.842-0.788-1.26-1.186c-0.03-0.028-0.067-0.04-0.099-0.063
	c0.031-0.025,0.064-0.048,0.093-0.075c0.345-0.315,0.319-0.891,0.001-1.21c-0.062-0.161-0.156-0.311-0.314-0.409
	c-0.159-0.098-0.303-0.217-0.454-0.33c-0.265-0.203-0.535-0.402-0.8-0.605c0.052,0.042,0.107,0.082,0.159,0.125
	c-0.13-0.101-0.261-0.202-0.392-0.302c-0.328-0.261-0.641-0.541-0.976-0.795c-0.372-0.283-0.764-0.541-1.155-0.796
	c-0.127-0.081-0.269-0.118-0.412-0.118c-0.299,0-0.599,0.163-0.753,0.424c-0.022,0.038-0.024,0.078-0.04,0.117
	c-0.064,0.034-0.129,0.065-0.184,0.117c-0.287,0.273-0.583,0.541-0.891,0.791c-0.22,0.168-0.435,0.341-0.651,0.514
	c-0.289,0.218-0.586,0.427-0.878,0.64c-0.35,0.254-0.675,0.543-1.014,0.812c-0.402,0.306-0.806,0.606-1.199,0.921
	c-0.261-0.227-0.507-0.473-0.755-0.713c-0.181-0.177-0.354-0.356-0.518-0.547c-0.151-0.173-0.309-0.328-0.48-0.48
	c-0.472-0.424-0.967-0.826-1.439-1.25c-0.482-0.434-0.963-0.87-1.457-1.29c-0.173-0.147-0.352-0.241-0.587-0.241
	c-0.161,0-0.309,0.06-0.442,0.146c-0.101,0.013-0.201,0.04-0.295,0.095C9.795,1.744,9.261,2.005,8.734,2.284
	c-0.689,0.362-1.366,0.75-2.05,1.125C6.31,3.616,6.187,4.1,6.355,4.479c-0.051,0.268,0.011,0.554,0.213,0.76
	C6.579,5.25,6.59,5.259,6.601,5.27C6.261,5.491,5.905,5.689,5.558,5.894C5.112,6.155,4.676,6.432,4.232,6.699
	C3.79,6.967,3.342,7.222,2.914,7.513c-0.48,0.33-0.975,0.639-1.457,0.965C1.272,8.602,1.135,8.757,1.075,8.974
	c-0.034,0.125-0.029,0.254-0.004,0.38c-0.091,0.234-0.091,0.5,0.041,0.733c0.291,0.512,0.607,1.005,0.938,1.491
	c0.303,0.444,0.591,0.896,0.884,1.346c0.247,0.38,0.498,0.76,0.747,1.139c0.203,0.31,0.392,0.629,0.549,0.964
	c0.041,0.109,0.081,0.217,0.132,0.324c0.031,0.066,0.085,0.111,0.134,0.161c-0.001,0.146,0.022,0.292,0.097,0.418
	c0.107,0.181,0.281,0.318,0.484,0.374c0.191,0.052,0.462,0.042,0.627-0.082c0.369-0.276,0.733-0.557,1.115-0.812
	c-0.027,1.273-0.055,2.546-0.03,3.819c0.016,0.782,0.052,1.563,0.076,2.343c0.022,0.768,0.07,1.535,0.099,2.301
	c0.022,0.591,0.034,1.18,0.028,1.77c-0.006,0.438-0.01,0.876,0.004,1.314c0.008,0.209,0,0.418-0.002,0.629
	c-0.002,0.189,0.006,0.378,0.004,0.569c-0.002,0.229,0.002,0.458,0.008,0.687c0.004,0.119,0.006,0.237,0.002,0.356
	c-0.002,0.092-0.014,0.187-0.008,0.277c0.012,0.142,0.053,0.266,0.113,0.382C7.113,29.88,7.101,29.9,7.101,29.924
	c0,0.462,0.4,0.894,0.876,0.876c0.902-0.036,1.805-0.109,2.707-0.131c0.458-0.01,0.92-0.008,1.38-0.006
	c0.358,0,0.717,0.002,1.077-0.004c0.832-0.008,1.662-0.024,2.494,0.004c0.808,0.024,1.616,0.036,2.423,0.04
	c1.051,0.006,2.1,0.064,3.151,0.066c0.579,0.002,1.157,0.006,1.736,0.006c0.406-0.002,0.822-0.022,1.228,0.014
	c0.426,0.039,0.779-0.368,0.809-0.768c0.002-0.002,0.005-0.003,0.007-0.005c0.137-0.137,0.265-0.378,0.239-0.579
	c-0.009-0.074-0.019-0.147-0.029-0.221c-0.017-0.177-0.023-0.354-0.035-0.53c-0.012-0.187-0.028-0.372-0.032-0.559
	c-0.012-0.595-0.04-1.188-0.044-1.784c-0.012-1.356-0.014-2.713-0.042-4.071c-0.012-0.601-0.036-1.202-0.06-1.802
	c-0.024-0.643-0.026-1.29-0.066-1.933c-0.036-0.609-0.088-1.214-0.107-1.825c-0.007-0.248-0.008-0.496-0.01-0.744
	c0.02,0.018,0.041,0.036,0.061,0.054c0.147,0.135,0.269,0.291,0.406,0.434c0.109,0.115,0.25,0.173,0.398,0.205
	c0.013,0.009,0.021,0.023,0.035,0.031c0.203,0.119,0.452,0.153,0.679,0.088c0.235-0.064,0.388-0.211,0.526-0.404
	c0.276-0.39,0.53-0.796,0.81-1.182c0.136-0.168,0.277-0.331,0.42-0.494c0.134-0.151,0.253-0.317,0.375-0.48
	c0.173-0.225,0.34-0.453,0.511-0.679c0.258-0.316,0.529-0.621,0.783-0.941c0.273-0.338,0.53-0.685,0.789-1.033
	c0.046-0.055,0.094-0.107,0.145-0.159C31.064,11.083,31.074,10.562,30.789,10.211z M18.512,5.949
	c0.326-0.276,0.651-0.553,0.987-0.819c0.275-0.21,0.552-0.417,0.826-0.629c0.209-0.16,0.419-0.321,0.629-0.479
	c0.265-0.198,0.504-0.422,0.757-0.635c0.051-0.037,0.104-0.073,0.156-0.109c0.01-0.007,0.016-0.018,0.026-0.025
	c0.111,0.069,0.221,0.137,0.332,0.206c0.253,0.156,0.513,0.303,0.752,0.48c0.275,0.219,0.545,0.442,0.829,0.647
	c0.23,0.165,0.462,0.326,0.69,0.492c-0.422,0.376-0.844,0.754-1.289,1.103c-0.408,0.312-0.817,0.621-1.222,0.938
	c-0.316,0.247-0.625,0.505-0.94,0.755C20.49,8.293,19.925,8.692,19.38,9.12c-0.014-0.017-0.03-0.034-0.044-0.051
	c-0.161-0.191-0.338-0.368-0.512-0.545c-0.299-0.297-0.629-0.561-0.938-0.846c-0.224-0.209-0.453-0.413-0.68-0.619
	C17.633,6.68,18.073,6.317,18.512,5.949z M9.406,3.723c0.249-0.155,0.508-0.279,0.768-0.416c0.227-0.12,0.452-0.252,0.684-0.363
	c0.004-0.001,0.008-0.002,0.013-0.003c0.39,0.307,0.783,0.609,1.163,0.927c0.48,0.404,0.969,0.802,1.433,1.228
	c0.344,0.313,0.643,0.671,0.981,0.991c0.238,0.225,0.475,0.45,0.713,0.675c-0.021,0.017-0.047,0.024-0.068,0.042
	c-0.239,0.221-0.474,0.446-0.707,0.675c-0.19,0.188-0.373,0.375-0.578,0.545c-0.392,0.296-0.789,0.584-1.182,0.874
	c-0.729-0.592-1.401-1.256-2.052-1.931C9.769,6.139,8.974,5.305,8.178,4.472C8.587,4.223,8.997,3.975,9.406,3.723z M6.896,13.513
	c-0.034,0.026-0.068,0.052-0.102,0.078c0.036-0.028,0.072-0.056,0.108-0.083C6.9,13.509,6.898,13.511,6.896,13.513z M12.603,29.021
	c-0.335,0-0.67,0.002-1.005,0.005c-0.494,0.006-0.989,0.006-1.483,0.006c-0.509,0-1.02,0.006-1.531,0.011
	c-0.025-0.39-0.039-0.784-0.032-1.172c0.012-0.474,0-0.952-0.008-1.427c-0.012-0.585-0.01-1.169-0.03-1.754
	c-0.024-0.766-0.052-1.531-0.088-2.295c-0.032-0.637-0.05-1.272-0.078-1.909c-0.032-0.667-0.068-1.336-0.074-2.005
	c-0.008-0.677,0.004-1.356,0.016-2.034c0.014-0.693,0.078-1.383,0.1-2.076c0.006-0.17-0.064-0.322-0.162-0.451
	c-0.016-0.084-0.037-0.167-0.084-0.247c-0.104-0.179-0.277-0.311-0.476-0.366c-0.07-0.019-0.141-0.029-0.211-0.029
	c-0.07,0-0.141,0.01-0.211,0.029c-0.131,0.037-0.244,0.103-0.341,0.197c-0.258,0.193-0.539,0.351-0.812,0.521
	c-0.161,0.101-0.316,0.21-0.476,0.313c-0.034-0.061-0.069-0.121-0.1-0.184c-0.09-0.181-0.197-0.354-0.299-0.529
	c-0.247-0.43-0.514-0.842-0.786-1.258c-0.307-0.474-0.607-0.957-0.906-1.439c-0.273-0.44-0.52-0.895-0.767-1.351
	c0.321-0.228,0.644-0.454,0.96-0.691C4.152,8.56,4.62,8.291,5.082,8.008C5.518,7.742,5.948,7.471,6.386,7.21
	c0.235-0.139,0.47-0.279,0.703-0.422c0.19-0.115,0.378-0.239,0.579-0.337c0.037-0.015,0.066-0.037,0.101-0.053
	c0.22,0.209,0.438,0.42,0.654,0.632c0.49,0.48,0.961,0.981,1.453,1.459c0.253,0.247,0.496,0.506,0.752,0.752
	c0.233,0.225,0.472,0.44,0.709,0.659c0.135,0.125,0.267,0.253,0.392,0.386c0.048,0.048,0.096,0.096,0.145,0.143
	c0.028,0.028,0.056,0.058,0.086,0.082c0.121,0.094,0.231,0.197,0.39,0.227c0.209,0.038,0.273,0.038,0.48,0
	c0.144-0.026,0.258-0.108,0.357-0.207c0.053-0.018,0.114-0.023,0.156-0.055c0.386-0.295,0.768-0.597,1.137-0.91
	c0.186-0.158,0.371-0.317,0.561-0.469c0.021,0.852,0.061,1.703,0.089,2.554c0.04,1.157,0.052,2.315,0.046,3.474
	c-0.006,1.256,0.014,2.514,0.002,3.772c-0.006,0.645-0.014,1.292-0.022,1.937c-0.008,0.627-0.034,1.252-0.02,1.879
	c0.014,0.563,0.01,1.127,0.016,1.69c0.002,0.241,0.002,0.48,0.006,0.719c0.006,0.323,0.032,0.645,0.05,0.969
	c0.034,0.595,0.076,1.188,0.076,1.784c-0.002,0.393-0.002,0.785-0.003,1.177c-0.064-0.001-0.128-0.001-0.192-0.003
	C14.262,29.031,13.432,29.021,12.603,29.021z M28.861,10.931c-0.032,0.041-0.064,0.082-0.096,0.123
	c-0.015,0.019-0.03,0.039-0.045,0.058c0.01-0.013,0.02-0.026,0.03-0.039c-0.169,0.217-0.338,0.435-0.505,0.654
	c-0.294,0.375-0.606,0.736-0.881,1.125c-0.19,0.266-0.364,0.542-0.558,0.806c-0.156,0.199-0.315,0.396-0.471,0.596
	c0.009-0.012,0.019-0.025,0.028-0.037c-0.14,0.18-0.278,0.363-0.418,0.543c-0.044-0.041-0.088-0.082-0.133-0.123
	c-0.328-0.309-0.695-0.577-1.041-0.868c-0.179-0.151-0.364-0.251-0.607-0.251c-0.227,0-0.448,0.092-0.609,0.251
	c-0.099,0.099-0.16,0.223-0.201,0.354c-0.136,0.145-0.226,0.33-0.212,0.536c0.03,0.438,0.066,0.876,0.088,1.316
	c0.018,0.362,0.03,0.723,0.058,1.085c0.054,0.758,0.106,1.515,0.143,2.273c0.016,0.358,0.016,0.715,0.036,1.073
	c0.022,0.36,0.054,0.721,0.064,1.081c0.022,0.735,0.026,1.473,0.022,2.208c-0.004,1.172-0.01,2.343,0.016,3.515
	c0.008,0.4-0.006,0.8,0.002,1.2c0.006,0.25,0.01,0.5,0.012,0.75c-0.463,0.004-0.926-0.001-1.389-0.007
	c-0.762-0.01-1.523-0.01-2.285-0.02c-0.814-0.012-1.628-0.034-2.443-0.048c-0.244-0.004-0.488-0.008-0.732-0.011
	c-0.001-0.044,0-0.088-0.001-0.132c-0.008-0.249,0.006-0.496,0.002-0.745c-0.008-0.601-0.004-1.2-0.046-1.798
	c-0.024-0.307-0.038-0.615-0.054-0.922c-0.014-0.279,0.002-0.559,0.002-0.836c0.002-0.563,0.016-1.125,0.014-1.688
	c-0.002-0.561,0.02-1.121,0.028-1.682c0.012-0.651,0.014-1.304,0.004-1.957c-0.018-1.27,0.016-2.542-0.02-3.814
	c-0.018-0.635-0.016-1.272-0.02-1.907c-0.004-0.563-0.022-1.123-0.016-1.686c0.004-0.5,0.028-1.005,0.006-1.507
	c-0.022-0.553-0.021-1.103-0.006-1.656c0.362,0.296,0.72,0.597,1.054,0.924c0.171,0.167,0.323,0.35,0.486,0.524
	c0.165,0.179,0.334,0.354,0.5,0.531c0.025,0.026,0.058,0.036,0.086,0.058c0.005,0.006,0.007,0.014,0.013,0.02
	c0.33,0.328,0.856,0.315,1.188,0c0.245-0.235,0.487-0.479,0.744-0.703c0.256-0.185,0.52-0.359,0.777-0.543
	c0.275-0.198,0.561-0.378,0.833-0.581c0.157-0.127,0.307-0.261,0.463-0.388c0.415-0.309,0.819-0.63,1.228-0.947
	c0.131-0.1,0.265-0.196,0.406-0.281c0.183-0.11,0.342-0.251,0.499-0.394c0.038,0.071,0.075,0.143,0.137,0.2
	c0.426,0.39,0.864,0.768,1.31,1.135c0.374,0.307,0.74,0.627,1.113,0.936c0.348,0.287,0.691,0.577,1.031,0.874
	c0.171,0.151,0.326,0.315,0.496,0.466c0.029,0.025,0.06,0.047,0.089,0.072c-0.09,0.116-0.181,0.232-0.27,0.348
	C28.827,10.973,28.844,10.952,28.861,10.931z M28.469,14.279c0.015-0.019,0.029-0.039,0.044-0.058
	c0.03-0.04,0.062-0.079,0.093-0.119C28.559,14.162,28.515,14.22,28.469,14.279z M28.75,11.073c0.02-0.026,0.04-0.052,0.061-0.079
	c-0.015,0.02-0.03,0.039-0.045,0.059C28.76,11.06,28.755,11.067,28.75,11.073z M22.225,9.038c0.028-0.022,0.056-0.044,0.084-0.066
	c0.011-0.008,0.022-0.017,0.033-0.025C22.303,8.977,22.264,9.007,22.225,9.038z M17.518,14.092c0-0.418,0.35-0.768,0.768-0.768
	s0.768,0.35,0.768,0.768s-0.35,0.768-0.768,0.768S17.518,14.51,17.518,14.092z M19.16,18.26c0,0.46-0.386,0.846-0.846,0.846
	c-0.46,0-0.846-0.386-0.846-0.846s0.386-0.846,0.846-0.846C18.775,17.414,19.16,17.8,19.16,18.26z M19.061,22.422
	c0,0.42-0.35,0.77-0.77,0.77s-0.77-0.35-0.77-0.77c0-0.42,0.35-0.77,0.77-0.77S19.061,22.002,19.061,22.422z M19.011,26.289
	c0,0.474-0.396,0.868-0.868,0.868c-0.474,0-0.868-0.394-0.868-0.868s0.394-0.868,0.868-0.868S19.011,25.815,19.011,26.289z"/>
</svg>